REM DIRINDEX 1\5,1\2\6,1\2\7,1\3\8,1\3\9,1\4\10,1\4\11,1\4\12
REM DIRNAME folder01,folder02,folder03,folder04,folder05,folder06,folder07,folder08,folder09,folder10,folder11,folder12
TITLE ""
FILE "EJE_DB3000_5th_4B_32.mp3" MP3
  TRACK 01 AUDIO
    TITLE "0:"
    INDEX 01 00:00:00
  TRACK 02 AUDIO
    TITLE "10:cjc026_09411"
    INDEX 01 00:00:05
  TRACK 03 AUDIO
    TITLE "0:"
    INDEX 01 00:01:01
  TRACK 04 AUDIO
    TITLE "11:cjc026_09412"
    INDEX 01 00:01:28
  TRACK 05 AUDIO
    TITLE "0:"
    INDEX 01 00:02:22
  TRACK 06 AUDIO
    TITLE "12:cjc026_09413"
    INDEX 01 00:02:47
  TRACK 07 AUDIO
    TITLE "0:"
    INDEX 01 00:03:43
  TRACK 08 AUDIO
    TITLE "10:cjc026_09414"
    INDEX 01 00:03:68
  TRACK 09 AUDIO
    TITLE "0:"
    INDEX 01 00:04:72
  TRACK 10 AUDIO
    TITLE "11:cjc026_09415"
    INDEX 01 00:05:24
  TRACK 11 AUDIO
    TITLE "0:"
    INDEX 01 00:06:35
  TRACK 12 AUDIO
    TITLE "12:cjc026_09416"
    INDEX 01 00:06:61
  TRACK 13 AUDIO
    TITLE "0:"
    INDEX 01 00:07:62
  TRACK 14 AUDIO
    TITLE "10:cjc026_09417"
    INDEX 01 00:08:15
  TRACK 15 AUDIO
    TITLE "0:"
    INDEX 01 00:09:16
  TRACK 16 AUDIO
    TITLE "11:cjc026_09418"
    INDEX 01 00:09:42
  TRACK 17 AUDIO
    TITLE "0:"
    INDEX 01 00:10:45
  TRACK 18 AUDIO
    TITLE "12:cjc026_09419"
    INDEX 01 00:10:70
  TRACK 19 AUDIO
    TITLE "0:"
    INDEX 01 00:11:70
  TRACK 20 AUDIO
    TITLE "10:cjc026_09420"
    INDEX 01 00:12:20
  TRACK 21 AUDIO
    TITLE "0:"
    INDEX 01 00:13:20
  TRACK 22 AUDIO
    TITLE "11:cjc026_09421"
    INDEX 01 00:13:47
  TRACK 23 AUDIO
    TITLE "0:"
    INDEX 01 00:14:53
  TRACK 24 AUDIO
    TITLE "12:cjc026_09422"
    INDEX 01 00:15:03
  TRACK 25 AUDIO
    TITLE "0:"
    INDEX 01 00:16:02
  TRACK 26 AUDIO
    TITLE "10:cjc026_09423"
    INDEX 01 00:16:28
  TRACK 27 AUDIO
    TITLE "0:"
    INDEX 01 00:17:18
  TRACK 28 AUDIO
    TITLE "11:cjc026_09424"
    INDEX 01 00:17:47
  TRACK 29 AUDIO
    TITLE "0:"
    INDEX 01 00:18:58
  TRACK 30 AUDIO
    TITLE "12:cjc026_09425"
    INDEX 01 00:19:09
  TRACK 31 AUDIO
    TITLE "0:"
    INDEX 01 00:20:02
  TRACK 32 AUDIO
    TITLE "10:cjc026_09426"
    INDEX 01 00:20:28
  TRACK 33 AUDIO
    TITLE "0:"
    INDEX 01 00:21:17
  TRACK 34 AUDIO
    TITLE "11:cjc026_09427"
    INDEX 01 00:21:45
  TRACK 35 AUDIO
    TITLE "0:"
    INDEX 01 00:22:70
  TRACK 36 AUDIO
    TITLE "12:cjc026_09428"
    INDEX 01 00:23:20
  TRACK 37 AUDIO
    TITLE "0:"
    INDEX 01 00:24:10
  TRACK 38 AUDIO
    TITLE "10:cjc026_09429"
    INDEX 01 00:24:35
  TRACK 39 AUDIO
    TITLE "0:"
    INDEX 01 00:25:35
  TRACK 40 AUDIO
    TITLE "11:cjc026_09430"
    INDEX 01 00:25:62
  TRACK 41 AUDIO
    TITLE "0:"
    INDEX 01 00:27:00
  TRACK 42 AUDIO
    TITLE "12:cjc026_09431"
    INDEX 01 00:27:26
  TRACK 43 AUDIO
    TITLE "0:"
    INDEX 01 00:28:25
  TRACK 44 AUDIO
    TITLE "10:cjc026_09432"
    INDEX 01 00:28:53
  TRACK 45 AUDIO
    TITLE "0:"
    INDEX 01 00:29:66
  TRACK 46 AUDIO
    TITLE "11:cjc026_09433"
    INDEX 01 00:30:14
  TRACK 47 AUDIO
    TITLE "0:"
    INDEX 01 00:31:57
  TRACK 48 AUDIO
    TITLE "12:cjc026_09434"
    INDEX 01 00:32:05
  TRACK 49 AUDIO
    TITLE "0:"
    INDEX 01 00:33:19
  TRACK 50 AUDIO
    TITLE "10:cjc026_09435"
    INDEX 01 00:33:46
  TRACK 51 AUDIO
    TITLE "0:"
    INDEX 01 00:34:49
  TRACK 52 AUDIO
    TITLE "11:cjc026_09436"
    INDEX 01 00:35:02
  TRACK 53 AUDIO
    TITLE "0:"
    INDEX 01 00:36:13
  TRACK 54 AUDIO
    TITLE "12:cjc026_09437"
    INDEX 01 00:36:42
  TRACK 55 AUDIO
    TITLE "0:"
    INDEX 01 00:37:48
  TRACK 56 AUDIO
    TITLE "10:cjc026_09438"
    INDEX 01 00:37:73
  TRACK 57 AUDIO
    TITLE "0:"
    INDEX 01 00:38:67
  TRACK 58 AUDIO
    TITLE "11:cjc026_09439"
    INDEX 01 00:39:17
  TRACK 59 AUDIO
    TITLE "0:"
    INDEX 01 00:40:24
  TRACK 60 AUDIO
    TITLE "12:cjc026_09440"
    INDEX 01 00:40:50
  TRACK 61 AUDIO
    TITLE "0:"
    INDEX 01 00:41:44
  TRACK 62 AUDIO
    TITLE "10:cjc026_09441"
    INDEX 01 00:41:69
  TRACK 63 AUDIO
    TITLE "0:"
    INDEX 01 00:42:65
  TRACK 64 AUDIO
    TITLE "11:cjc026_09442"
    INDEX 01 00:43:15
  TRACK 65 AUDIO
    TITLE "0:"
    INDEX 01 00:44:20
  TRACK 66 AUDIO
    TITLE "12:cjc026_09443"
    INDEX 01 00:44:48
  TRACK 67 AUDIO
    TITLE "0:"
    INDEX 01 00:45:43
  TRACK 68 AUDIO
    TITLE "10:cjc026_09444"
    INDEX 01 00:45:69
  TRACK 69 AUDIO
    TITLE "0:"
    INDEX 01 00:46:64
  TRACK 70 AUDIO
    TITLE "11:cjc026_09445"
    INDEX 01 00:47:17
  TRACK 71 AUDIO
    TITLE "0:"
    INDEX 01 00:48:34
  TRACK 72 AUDIO
    TITLE "12:cjc026_09446"
    INDEX 01 00:48:59
  TRACK 73 AUDIO
    TITLE "0:"
    INDEX 01 00:49:55
  TRACK 74 AUDIO
    TITLE "10:cjc026_09447"
    INDEX 01 00:50:03
  TRACK 75 AUDIO
    TITLE "0:"
    INDEX 01 00:51:05
  TRACK 76 AUDIO
    TITLE "11:cjc026_09448"
    INDEX 01 00:51:28
  TRACK 77 AUDIO
    TITLE "0:"
    INDEX 01 00:52:28
  TRACK 78 AUDIO
    TITLE "12:cjc026_09449"
    INDEX 01 00:52:49
  TRACK 79 AUDIO
    TITLE "0:"
    INDEX 01 00:53:49
